<svg xmlns="http://www.w3.org/2000/svg" version="1.1" xmlns:xlink="http://www.w3.org/1999/xlink" xmlns:svgjs="http://svgjs.dev/svgjs" width="1440" height="720" preserveAspectRatio="none" viewBox="0 0 1440 720">
    <g mask="url(&quot;#SvgjsMask1216&quot;)" fill="none">
        <rect width="1440" height="720" x="0" y="0" fill="url(&quot;#SvgjsLinearGradient1217&quot;)"></rect>
        <path d="M1505.8722180341938 203.6906121536526L1405.334104361105 79.53638145535747 1281.1798736628098 180.07449512844633 1381.7179873358987 304.2287258267415z" fill="rgba(28, 135, 142, 0.4)" class="triangle-float1"></path>
        <path d="M-2.307665057215875 224.8461216227135L197.50667929457148 263.68609564796435 236.3466533198223 63.87175129617697 36.53230896803497 25.031777270926142z" fill="rgba(28, 135, 142, 0.4)" class="triangle-float2"></path>
        <path d="M282.99,418.084C331.586,417.76,386.217,412.889,410.537,370.815C434.87,328.719,412.274,278.678,387.884,236.615C363.602,194.739,331.378,152.214,282.99,150.849C232.857,149.435,192.768,187.177,167.322,230.395C141.416,274.394,125.676,329.067,152.464,372.535C178.376,414.582,233.601,418.413,282.99,418.084" fill="rgba(28, 135, 142, 0.4)" class="triangle-float3"></path>
        <path d="M-1.016,137.451C22.062,138.299,42.701,124.179,54.492,104.322C66.556,84.006,70.008,58.549,57.875,38.274C46.012,18.45,22.027,9.919,-1.016,11.566C-21.418,13.024,-37.081,27.84,-46.931,45.766C-56.36,62.924,-58.645,82.979,-49.878,100.485C-40.077,120.057,-22.89,136.647,-1.016,137.451" fill="rgba(28, 135, 142, 0.4)" class="triangle-float3"></path>
        <path d="M84.342,157.908C120.193,158.082,144.93,126.88,163.468,96.194C182.905,64.018,200.794,26.606,183.969,-7.009C165.78,-43.348,124.975,-62.426,84.342,-61.892C44.624,-61.37,6.758,-40.055,-10.851,-4.45C-26.908,28.017,-11.786,64.187,6.534,95.433C24.565,126.187,48.692,157.735,84.342,157.908" fill="rgba(28, 135, 142, 0.4)" class="triangle-float1"></path>
        <path d="M120.701,809.084C181.093,809.177,245.001,789.664,273.268,736.296C300.312,685.237,275.061,625.707,243.444,577.346C215.382,534.424,171.971,503.988,120.701,502.936C67.534,501.845,17.942,527.568,-11.09,572.122C-43.257,621.487,-59.694,684.336,-31.056,735.828C-1.794,788.442,60.497,808.991,120.701,809.084" fill="rgba(28, 135, 142, 0.4)" class="triangle-float2"></path>
        <path d="M1213.061,812.437C1283.563,811.713,1346.867,771.304,1381.769,710.042C1416.315,649.405,1418.101,574.838,1382.681,514.708C1347.771,455.444,1281.843,423.553,1213.061,423.637C1144.435,423.721,1079.596,456.354,1044.16,515.123C1007.535,575.865,1003.206,651.897,1038.242,713.57C1073.684,775.959,1141.312,813.174,1213.061,812.437" fill="rgba(28, 135, 142, 0.4)" class="triangle-float3"></path>
        <path d="M995.754,579.482C1017.707,579.777,1039.206,570.094,1050.278,551.136C1061.438,532.027,1059.535,508.385,1048.47,489.221C1037.405,470.057,1017.849,455.468,995.754,456.699C975.196,457.845,962.375,476.612,952.32,494.58C942.586,511.975,934.63,531.96,943.708,549.706C953.464,568.777,974.334,579.195,995.754,579.482" fill="rgba(28, 135, 142, 0.4)" class="triangle-float2"></path>
        <path d="M646.1961615647876 447.3085865819304L681.5696705899302 294.0890856507524 528.3501696587523 258.7155766256098 492.97666063360964 411.9350775567878z" fill="rgba(28, 135, 142, 0.4)" class="triangle-float2"></path>
        <path d="M1195.426,220.703C1230.852,220.781,1269.002,214.24,1287.571,184.071C1306.844,152.758,1299.562,113.205,1281.2,81.349C1262.812,49.449,1232.233,25.191,1195.426,24.214C1156.985,23.193,1120.513,43.215,1101.382,76.574C1082.343,109.773,1083.069,151.614,1103.983,183.665C1123.244,213.184,1160.179,220.625,1195.426,220.703" fill="rgba(28, 135, 142, 0.4)" class="triangle-float3"></path>
        <path d="M702.6635248245661 685.6486300164917L798.3718843737017 743.1560141812977 855.8792685385077 647.447654632162 760.1709089893722 589.9402704673561z" fill="rgba(28, 135, 142, 0.4)" class="triangle-float1"></path>
        <path d="M805.6641855840378 209.34054784243412L646.7174735871671 66.22428553260775 503.6012112773407 225.17099752947846 662.5479232742114 368.28725983930485z" fill="rgba(28, 135, 142, 0.4)" class="triangle-float3"></path>
    </g>
    <defs>
        <mask id="SvgjsMask1216">
            <rect width="1440" height="720" fill="#ffffff"></rect>
        </mask>
        <linearGradient x1="12.5%" y1="-25%" x2="87.5%" y2="125%" gradientUnits="userSpaceOnUse" id="SvgjsLinearGradient1217">
            <stop stop-color="rgba(14, 71, 61, 1)" offset="0"></stop>
            <stop stop-color="rgba(0, 158, 153, 1)" offset="1"></stop>
        </linearGradient>
        <style>
            @keyframes float1 {
                    0%{transform: translate(0, 0)}
                    50%{transform: translate(-10px, 0)}
                    100%{transform: translate(0, 0)}
                }

                .triangle-float1 {
                    animation: float1 5s infinite;
                }

                @keyframes float2 {
                    0%{transform: translate(0, 0)}
                    50%{transform: translate(-5px, -5px)}
                    100%{transform: translate(0, 0)}
                }

                .triangle-float2 {
                    animation: float2 4s infinite;
                }

                @keyframes float3 {
                    0%{transform: translate(0, 0)}
                    50%{transform: translate(0, -10px)}
                    100%{transform: translate(0, 0)}
                }

                .triangle-float3 {
                    animation: float3 6s infinite;
                }
        </style>
    </defs>
</svg>